<mxfile><diagram id="QGZRpbDFBMBwngAD1Nyo" name="Page-1"><mxGraphModel dx="735" dy="502" grid="1" gridSize="10" guides="1" tooltips="1" connect="1" arrows="1" fold="1" page="1" pageScale="1" pageWidth="850" pageHeight="1100" math="0" shadow="0"><root><mxCell id="0"/><mxCell id="1" parent="0"/><mxCell id="sE2LJ5AV7g2kFGwZFYg3-16" style="edgeStyle=orthogonalEdgeStyle;rounded=0;orthogonalLoop=1;jettySize=auto;html=1;entryX=0.5;entryY=0;entryDx=0;entryDy=0;" parent="1" source="sE2LJ5AV7g2kFGwZFYg3-1" target="sE2LJ5AV7g2kFGwZFYg3-15" edge="1"><mxGeometry relative="1" as="geometry"/></mxCell><mxCell id="sE2LJ5AV7g2kFGwZFYg3-1" value="DCS PROJECTS" style="rounded=0;whiteSpace=wrap;html=1;" parent="1" vertex="1"><mxGeometry x="200" y="40" width="120" height="40" as="geometry"/></mxCell><mxCell id="sE2LJ5AV7g2kFGwZFYg3-42" value="" style="edgeStyle=orthogonalEdgeStyle;rounded=0;sketch=0;orthogonalLoop=1;jettySize=auto;html=1;shadow=0;strokeWidth=1.5;" parent="1" source="sE2LJ5AV7g2kFGwZFYg3-2" target="sE2LJ5AV7g2kFGwZFYg3-33" edge="1"><mxGeometry relative="1" as="geometry"/></mxCell><mxCell id="sE2LJ5AV7g2kFGwZFYg3-44" style="edgeStyle=orthogonalEdgeStyle;rounded=0;sketch=0;orthogonalLoop=1;jettySize=auto;html=1;entryX=0;entryY=0.5;entryDx=0;entryDy=0;shadow=0;strokeWidth=1.5;fillColor=#b0e3e6;strokeColor=#0e8088;" parent="1" source="sE2LJ5AV7g2kFGwZFYg3-2" target="sE2LJ5AV7g2kFGwZFYg3-19" edge="1"><mxGeometry relative="1" as="geometry"/></mxCell><mxCell id="sE2LJ5AV7g2kFGwZFYg3-2" value="Team" style="rounded=0;whiteSpace=wrap;html=1;" parent="1" vertex="1"><mxGeometry x="120" y="200" width="120" height="40" as="geometry"/></mxCell><mxCell id="sE2LJ5AV7g2kFGwZFYg3-35" style="edgeStyle=orthogonalEdgeStyle;rounded=0;sketch=0;orthogonalLoop=1;jettySize=auto;html=1;shadow=0;strokeWidth=1.5;" parent="1" source="sE2LJ5AV7g2kFGwZFYg3-4" target="sE2LJ5AV7g2kFGwZFYg3-20" edge="1"><mxGeometry relative="1" as="geometry"/></mxCell><mxCell id="sE2LJ5AV7g2kFGwZFYg3-4" value="DCS" style="whiteSpace=wrap;html=1;" parent="1" vertex="1"><mxGeometry x="560" y="40" width="120" height="40" as="geometry"/></mxCell><mxCell id="sE2LJ5AV7g2kFGwZFYg3-22" style="edgeStyle=orthogonalEdgeStyle;rounded=0;orthogonalLoop=1;jettySize=auto;html=1;entryX=0;entryY=0.75;entryDx=0;entryDy=0;fillColor=#ffe6cc;strokeColor=#d79b00;strokeWidth=1.5;" parent="1" source="sE2LJ5AV7g2kFGwZFYg3-7" target="sE2LJ5AV7g2kFGwZFYg3-21" edge="1"><mxGeometry relative="1" as="geometry"/></mxCell><mxCell id="sE2LJ5AV7g2kFGwZFYg3-7" value="Space" style="whiteSpace=wrap;html=1;" parent="1" vertex="1"><mxGeometry x="280" y="280" width="120" height="40" as="geometry"/></mxCell><mxCell id="sE2LJ5AV7g2kFGwZFYg3-25" style="edgeStyle=orthogonalEdgeStyle;rounded=0;orthogonalLoop=1;jettySize=auto;html=1;entryX=0;entryY=0.5;entryDx=0;entryDy=0;fillColor=#f8cecc;strokeColor=#b85450;strokeWidth=1.5;" parent="1" source="sE2LJ5AV7g2kFGwZFYg3-8" target="sE2LJ5AV7g2kFGwZFYg3-21" edge="1"><mxGeometry relative="1" as="geometry"/></mxCell><mxCell id="sE2LJ5AV7g2kFGwZFYg3-8" value="Project" style="whiteSpace=wrap;html=1;" parent="1" vertex="1"><mxGeometry x="300" y="330" width="120" height="40" as="geometry"/></mxCell><mxCell id="sE2LJ5AV7g2kFGwZFYg3-26" style="edgeStyle=orthogonalEdgeStyle;rounded=0;orthogonalLoop=1;jettySize=auto;html=1;entryX=0;entryY=0.5;entryDx=0;entryDy=0;fillColor=#e1d5e7;strokeColor=#9673a6;strokeWidth=1.5;" parent="1" source="sE2LJ5AV7g2kFGwZFYg3-9" target="sE2LJ5AV7g2kFGwZFYg3-29" edge="1"><mxGeometry relative="1" as="geometry"/></mxCell><mxCell id="sE2LJ5AV7g2kFGwZFYg3-9" value="Milestone" style="whiteSpace=wrap;html=1;" parent="1" vertex="1"><mxGeometry x="320" y="380" width="120" height="40" as="geometry"/></mxCell><mxCell id="sE2LJ5AV7g2kFGwZFYg3-32" style="edgeStyle=orthogonalEdgeStyle;rounded=0;sketch=0;orthogonalLoop=1;jettySize=auto;html=1;entryX=0;entryY=0.5;entryDx=0;entryDy=0;shadow=0;strokeWidth=1.5;fillColor=#d80073;strokeColor=#A50040;" parent="1" source="sE2LJ5AV7g2kFGwZFYg3-13" target="sE2LJ5AV7g2kFGwZFYg3-30" edge="1"><mxGeometry relative="1" as="geometry"/></mxCell><mxCell id="sE2LJ5AV7g2kFGwZFYg3-13" value="Tasks" style="whiteSpace=wrap;html=1;" parent="1" vertex="1"><mxGeometry x="340" y="480" width="120" height="40" as="geometry"/></mxCell><mxCell id="sE2LJ5AV7g2kFGwZFYg3-23" style="edgeStyle=orthogonalEdgeStyle;rounded=0;orthogonalLoop=1;jettySize=auto;html=1;entryX=0;entryY=0.5;entryDx=0;entryDy=0;fillColor=#d5e8d4;strokeColor=#82b366;strokeWidth=1.5;" parent="1" source="sE2LJ5AV7g2kFGwZFYg3-15" target="sE2LJ5AV7g2kFGwZFYg3-20" edge="1"><mxGeometry relative="1" as="geometry"/></mxCell><mxCell id="sE2LJ5AV7g2kFGwZFYg3-28" style="edgeStyle=orthogonalEdgeStyle;rounded=0;orthogonalLoop=1;jettySize=auto;html=1;entryX=0;entryY=0.5;entryDx=0;entryDy=0;shadow=0;sketch=0;fillColor=#dae8fc;strokeColor=#6c8ebf;strokeWidth=1.5;" parent="1" source="sE2LJ5AV7g2kFGwZFYg3-17" target="sE2LJ5AV7g2kFGwZFYg3-27" edge="1"><mxGeometry relative="1" as="geometry"><Array as="points"><mxPoint x="540" y="450"/><mxPoint x="540" y="300"/></Array></mxGeometry></mxCell><mxCell id="sE2LJ5AV7g2kFGwZFYg3-17" value="Resource" style="whiteSpace=wrap;html=1;" parent="1" vertex="1"><mxGeometry x="340" y="430" width="120" height="40" as="geometry"/></mxCell><mxCell id="sE2LJ5AV7g2kFGwZFYg3-19" value="Team" style="whiteSpace=wrap;html=1;" parent="1" vertex="1"><mxGeometry x="480" y="200" width="120" height="40" as="geometry"/></mxCell><mxCell id="sE2LJ5AV7g2kFGwZFYg3-39" style="edgeStyle=orthogonalEdgeStyle;rounded=0;sketch=0;orthogonalLoop=1;jettySize=auto;html=1;entryX=0.5;entryY=0;entryDx=0;entryDy=0;shadow=0;strokeWidth=1.5;" parent="1" source="sE2LJ5AV7g2kFGwZFYg3-20" target="sE2LJ5AV7g2kFGwZFYg3-27" edge="1"><mxGeometry relative="1" as="geometry"><Array as="points"><mxPoint x="620" y="170"/><mxPoint x="700" y="170"/></Array></mxGeometry></mxCell><mxCell id="sE2LJ5AV7g2kFGwZFYg3-40" style="edgeStyle=orthogonalEdgeStyle;rounded=0;sketch=0;orthogonalLoop=1;jettySize=auto;html=1;exitX=0.25;exitY=1;exitDx=0;exitDy=0;shadow=0;strokeWidth=1.5;" parent="1" source="sE2LJ5AV7g2kFGwZFYg3-20" target="sE2LJ5AV7g2kFGwZFYg3-19" edge="1"><mxGeometry relative="1" as="geometry"><Array as="points"><mxPoint x="620" y="140"/><mxPoint x="620" y="170"/><mxPoint x="540" y="170"/></Array></mxGeometry></mxCell><mxCell id="sE2LJ5AV7g2kFGwZFYg3-20" value="Organization" style="whiteSpace=wrap;html=1;" parent="1" vertex="1"><mxGeometry x="560" y="100" width="120" height="40" as="geometry"/></mxCell><mxCell id="sE2LJ5AV7g2kFGwZFYg3-21" value="Repo labels" style="whiteSpace=wrap;html=1;" parent="1" vertex="1"><mxGeometry x="650" y="330" width="120" height="40" as="geometry"/></mxCell><mxCell id="sE2LJ5AV7g2kFGwZFYg3-27" value="Repos" style="whiteSpace=wrap;html=1;" parent="1" vertex="1"><mxGeometry x="640" y="280" width="120" height="40" as="geometry"/></mxCell><mxCell id="sE2LJ5AV7g2kFGwZFYg3-29" value="Milestone" style="whiteSpace=wrap;html=1;" parent="1" vertex="1"><mxGeometry x="650" y="380" width="120" height="40" as="geometry"/></mxCell><mxCell id="sE2LJ5AV7g2kFGwZFYg3-30" value="Issue" style="whiteSpace=wrap;html=1;" parent="1" vertex="1"><mxGeometry x="650" y="430" width="120" height="40" as="geometry"/></mxCell><mxCell id="sE2LJ5AV7g2kFGwZFYg3-33" value="Role" style="whiteSpace=wrap;html=1;" parent="1" vertex="1"><mxGeometry x="120" y="260" width="120" height="40" as="geometry"/></mxCell><mxCell id="sE2LJ5AV7g2kFGwZFYg3-41" style="edgeStyle=orthogonalEdgeStyle;rounded=0;sketch=0;orthogonalLoop=1;jettySize=auto;html=1;entryX=0.5;entryY=0;entryDx=0;entryDy=0;shadow=0;strokeWidth=1.5;" parent="1" source="sE2LJ5AV7g2kFGwZFYg3-15" target="sE2LJ5AV7g2kFGwZFYg3-7" edge="1"><mxGeometry relative="1" as="geometry"><Array as="points"><mxPoint x="260" y="170"/><mxPoint x="340" y="170"/></Array></mxGeometry></mxCell><mxCell id="sE2LJ5AV7g2kFGwZFYg3-43" style="edgeStyle=orthogonalEdgeStyle;rounded=0;sketch=0;orthogonalLoop=1;jettySize=auto;html=1;exitX=0.25;exitY=1;exitDx=0;exitDy=0;entryX=0.5;entryY=0;entryDx=0;entryDy=0;shadow=0;strokeWidth=1.5;" parent="1" source="sE2LJ5AV7g2kFGwZFYg3-15" target="sE2LJ5AV7g2kFGwZFYg3-2" edge="1"><mxGeometry relative="1" as="geometry"><Array as="points"><mxPoint x="260" y="140"/><mxPoint x="260" y="170"/><mxPoint x="180" y="170"/></Array></mxGeometry></mxCell><mxCell id="sE2LJ5AV7g2kFGwZFYg3-15" value="Organization" style="whiteSpace=wrap;html=1;" parent="1" vertex="1"><mxGeometry x="200" y="100" width="120" height="40" as="geometry"/></mxCell></root></mxGraphModel></diagram></mxfile>